<svg width="19" height="19" viewBox="0 0 19 19" fill="none" xmlns="http://www.w3.org/2000/svg">
<g clip-path="url(#clip0_7862_12240)">
<path d="M1.57422 9.93555H14.9688" stroke="currentColor" stroke-width="1.5" stroke-miterlimit="10" stroke-linecap="round" stroke-linejoin="round"/>
<path d="M14.9688 8.10006V13.7337C14.9452 15.9792 14.3306 16.5465 11.9905 16.5465H4.55254C2.17304 16.5465 1.57422 15.9556 1.57422 13.6076V8.10006C1.57422 5.97269 2.07061 5.2872 3.93797 5.17689C4.12707 5.16901 4.33193 5.16113 4.55254 5.16113H11.9905C14.37 5.16113 14.9688 5.75207 14.9688 8.10006Z" stroke="currentColor" stroke-width="1.5" stroke-linecap="round" stroke-linejoin="round"/>
<path d="M17.336 5.30221V10.8097C17.336 12.9371 16.8396 13.6226 14.9722 13.7329V8.09931C14.9722 5.75132 14.3734 5.16039 11.9939 5.16039H4.55598C4.33536 5.16039 4.13051 5.16826 3.94141 5.17614C3.96504 2.93058 4.57962 2.36328 6.91973 2.36328H14.3577C16.7372 2.36328 17.336 2.95422 17.336 5.30221Z" stroke="currentColor" stroke-width="1.5" stroke-linecap="round" stroke-linejoin="round"/>
<path d="M4.13672 14.0332H5.49194M7.17808 14.0332H9.88851" stroke="currentColor" stroke-width="1.5" stroke-miterlimit="10" stroke-linecap="round" stroke-linejoin="round"/>
</g>
<defs>
<clipPath id="clip0_7862_12240">
<rect width="18.91" height="18.91" fill="white"/>
</clipPath>
</defs>
</svg>
