<svg width="15" height="15" viewBox="0 0 15 15" fill="none" xmlns="http://www.w3.org/2000/svg">
<path d="M9.75623 7.60413V10.0447C9.75623 12.0785 8.94272 12.892 6.90893 12.892H4.46839C2.43461 12.892 1.62109 12.0785 1.62109 10.0447V7.60413C1.62109 5.57035 2.43461 4.75684 4.46839 4.75684H6.90893C8.94272 4.75684 9.75623 5.57035 9.75623 7.60413Z" fill="currentColor" fill-opacity="0.2" stroke="currentColor" stroke-width="0.871622" stroke-linecap="round" stroke-linejoin="round"/>
<path d="M13.2406 4.11781V6.55835C13.2406 8.59213 12.4271 9.40564 10.3933 9.40564H9.75412V7.60429C9.75412 5.57051 8.9406 4.75699 6.90682 4.75699H5.10547V4.11781C5.10547 2.08402 5.91898 1.27051 7.95277 1.27051H10.3933C12.4271 1.27051 13.2406 2.08402 13.2406 4.11781Z" stroke="currentColor" stroke-width="0.871622" stroke-linecap="round" stroke-linejoin="round"/>
</svg>
