<?xml version="1.0" standalone="no"?>
<!DOCTYPE svg PUBLIC "-//W3C//DTD SVG 20010904//EN"
 "http://www.w3.org/TR/2001/REC-SVG-20010904/DTD/svg10.dtd">
<svg version="1.0" xmlns="http://www.w3.org/2000/svg"
 width="128.000000pt" height="128.000000pt" viewBox="0 0 128.000000 128.000000"
 preserveAspectRatio="xMidYMid meet">

<g transform="translate(0.000000,128.000000) scale(0.100000,-0.100000)"
fill="#000000" stroke="none">
<path d="M233 1131 c-17 -11 -34 -28 -37 -38 -6 -20 -25 -156 -26 -185 0 -15
-9 -18 -45 -18 -56 0 -97 -20 -113 -55 -16 -36 -17 -613 -1 -649 26 -56 35
-57 553 -54 l476 3 27 27 c23 23 28 38 31 93 l4 65 35 0 c25 0 43 8 63 28 32
33 32 28 61 386 23 276 21 291 -23 320 -18 12 -131 24 -448 51 -234 19 -447
37 -475 40 -39 4 -57 1 -82 -14z m552 -76 c310 -26 423 -39 433 -49 12 -12 11
-56 -11 -311 -15 -174 -31 -303 -38 -311 -6 -8 -24 -14 -40 -14 l-28 0 -3 231
-3 231 -33 29 -32 29 -405 0 c-379 0 -405 1 -405 18 0 9 5 51 10 92 12 89 24
103 90 95 25 -3 234 -21 465 -40z m249 -237 c9 -12 16 -35 16 -50 l0 -28 -500
0 -500 0 0 34 c0 69 -20 66 500 66 l469 0 15 -22z m16 -178 l0 -50 -500 0
-500 0 0 50 0 50 500 0 500 0 0 -50z m0 -260 c0 -147 -2 -162 -20 -180 -19
-19 -33 -20 -482 -20 -415 0 -463 2 -480 17 -16 14 -18 34 -18 180 l0 163 500
0 500 0 0 -160z"/>
<path d="M680 360 l0 -101 143 3 142 3 0 95 0 95 -142 3 -143 3 0 -101z m240
0 l0 -50 -95 0 -95 0 0 50 0 50 95 0 95 0 0 -50z"/>
</g>
</svg>
