<svg width="19" height="19" viewBox="0 0 19 19" fill="none" xmlns="http://www.w3.org/2000/svg">
<g clip-path="url(#clip0_7876_12332)">
<path d="M10.3027 8.2497C11.8467 8.2497 13.3775 8.2497 14.91 8.2497C15.2856 8.2497 15.663 8.2497 16.0386 8.2497C16.2157 8.2497 16.3465 8.301 16.368 8.50456C16.3928 8.74618 16.4524 8.98614 16.454 9.22611C16.4656 10.7999 16.464 12.3738 16.4739 13.9476C16.4755 14.3796 16.2455 14.6261 15.8136 14.6261C14.1653 14.6261 12.517 14.6261 10.8686 14.6261C10.7528 14.6261 10.6353 14.6278 10.5195 14.6162C10.2977 14.5947 10.1355 14.4458 10.1123 14.2273C10.0792 13.9294 10.0412 13.6299 10.0395 13.3303C10.0329 11.8376 10.0346 10.3465 10.0395 8.85375C10.0395 8.6866 10.023 8.49298 10.2431 8.41023C10.2729 8.39864 10.2778 8.31755 10.3027 8.24805V8.2497ZM13.2137 8.9878C12.5567 8.9878 11.8997 8.9878 11.2427 8.9878C11.011 8.9878 10.8686 9.08048 10.8124 9.31051C10.776 9.46111 10.7743 9.62164 10.7727 9.77886C10.7727 10.8744 10.7793 11.97 10.776 13.0655C10.7743 13.7921 10.9051 13.9228 11.6365 13.9195C12.7453 13.9145 13.8525 13.9145 14.9613 13.9178C15.5537 13.9178 15.7523 13.7259 15.749 13.1334C15.7424 12.0378 15.7391 10.9423 15.7308 9.84671C15.7308 9.71762 15.7226 9.58688 15.7043 9.4578C15.6597 9.14833 15.4743 8.99111 15.1615 8.98945C14.5111 8.98945 13.8608 8.98945 13.212 8.98945L13.2137 8.9878Z" fill="currentColor"/>
<path d="M4.92525 9.73169C4.45359 9.73169 3.98028 9.76314 3.51194 9.72342C2.95754 9.67543 2.67123 9.21039 2.81356 8.67088C2.87645 8.43423 3.22398 8.16944 3.50532 8.16779C4.46352 8.16282 5.42007 8.16282 6.37828 8.16779C6.69271 8.16944 7.01708 8.43754 7.07004 8.71391C7.15278 9.15412 7.01046 9.50166 6.65134 9.63405C6.45606 9.70687 6.24092 9.74162 6.0324 9.75321C5.66335 9.77141 5.2943 9.75817 4.92525 9.75817C4.92525 9.7499 4.92525 9.73997 4.92525 9.73169Z" fill="currentColor"/>
<path d="M2.4987 10.3025C2.74529 10.3025 2.99187 10.3008 3.23845 10.3025C3.82926 10.3091 4.20162 10.8933 3.96 11.4328C3.83588 11.7092 3.59592 11.8416 3.32617 11.8548C2.7668 11.8813 2.20412 11.8912 1.64807 11.8532C1.19793 11.8217 0.933137 11.4477 0.967891 11.0075C1.00099 10.607 1.34687 10.3041 1.78046 10.3025C2.02043 10.3025 2.25874 10.3025 2.4987 10.3025Z" fill="currentColor"/>
<path d="M13.6498 5.88639C13.6498 5.51734 13.6597 5.14664 13.6448 4.77759C13.6382 4.59389 13.7293 4.5128 13.8782 4.47308C13.9692 4.44826 14.0669 4.43998 14.1612 4.43998C14.7768 4.43667 15.3925 4.43667 16.0081 4.43998C16.4533 4.44164 16.5228 4.5128 16.5228 4.94805C16.5228 5.60505 16.5261 6.26206 16.5228 6.91907C16.5211 7.2335 16.445 7.30301 16.1306 7.30301C15.4603 7.30301 14.7901 7.30301 14.1198 7.2997C14.0453 7.2997 13.9676 7.29639 13.8964 7.27984C13.7293 7.24012 13.63 7.15903 13.6415 6.95382C13.6614 6.59967 13.6465 6.2422 13.6465 5.88639H13.6498ZM16.1587 5.89467H16.1686C16.1686 5.66132 16.1719 5.42963 16.1686 5.19629C16.162 4.87192 16.0925 4.80407 15.7615 4.80241C15.3246 4.80076 14.886 4.7991 14.4491 4.80241C14.3614 4.80241 14.2621 4.80076 14.1877 4.83882C14.1165 4.87523 14.0222 4.96129 14.0189 5.02748C14.004 5.58188 14.0073 6.13463 14.0089 6.68903C14.0089 6.8479 14.1016 6.93562 14.2506 6.93562C14.805 6.93893 15.3577 6.93727 15.9121 6.93065C16.0826 6.929 16.1686 6.83632 16.162 6.65428C16.1537 6.40107 16.1603 6.14787 16.1603 5.89467H16.1587Z" fill="currentColor"/>
<path d="M5.60088 13.2509C5.60088 12.9083 5.60088 12.5674 5.60088 12.2248C5.60088 11.9303 5.68694 11.8376 5.98979 11.831C6.40021 11.8227 6.81063 11.8244 7.2194 11.8244C7.52722 11.8244 7.83504 11.8293 8.14285 11.8293C8.33482 11.8293 8.43578 11.922 8.43743 12.1156C8.44405 12.8537 8.45563 13.5935 8.45232 14.3316C8.45232 14.6245 8.37454 14.6907 8.07666 14.6923C7.39979 14.6957 6.72292 14.6923 6.04606 14.689C5.9782 14.689 5.91035 14.6775 5.8425 14.6642C5.67866 14.6311 5.58599 14.5566 5.59426 14.3597C5.61081 13.9907 5.59923 13.6216 5.59923 13.2509H5.60088ZM8.06838 13.2708C8.06838 12.9911 8.06011 12.7097 8.07169 12.4301C8.07831 12.2497 7.99556 12.1818 7.83007 12.1818C7.5024 12.1818 7.17472 12.1818 6.84539 12.1818C6.63356 12.1818 6.42173 12.1653 6.21155 12.1818C6.05433 12.1934 5.9269 12.2662 5.92856 12.4648C5.93187 12.9845 5.92856 13.5058 5.93021 14.0254C5.93021 14.2372 6.01461 14.3266 6.22644 14.3349C6.45151 14.3448 6.67824 14.3382 6.90331 14.3382C7.20451 14.3382 7.50405 14.3432 7.80525 14.3382C7.96247 14.3365 8.08162 14.2952 8.07169 14.09C8.05845 13.8169 8.06838 13.5438 8.06838 13.2691V13.2708Z" fill="currentColor"/>
<path d="M5.60129 5.8871C5.60129 5.51805 5.61122 5.14735 5.59798 4.7783C5.59136 4.58467 5.68734 4.50358 5.84953 4.46717C5.93558 4.44731 6.02495 4.44069 6.11432 4.44069C6.73657 4.43904 7.35882 4.43904 7.98108 4.44069C8.06217 4.44069 8.14491 4.45228 8.22601 4.46386C8.3584 4.48372 8.43784 4.55819 8.43784 4.69721C8.44446 5.47006 8.45604 6.24457 8.45108 7.01742C8.45108 7.25077 8.37991 7.30372 8.14657 7.30372C7.43495 7.30372 6.72333 7.30372 6.01171 7.29876C5.6741 7.29545 5.60129 7.21436 5.60129 6.87344C5.60129 6.54411 5.60129 6.21643 5.60129 5.8871ZM8.06548 5.87221C8.06548 5.619 8.04727 5.36415 8.07044 5.11425C8.08865 4.90738 8.0059 4.81305 7.82055 4.8114C7.28104 4.80312 6.74153 4.79981 6.20203 4.8114C6.07956 4.81471 5.93227 4.85774 5.93227 5.03316C5.93062 5.58094 5.93062 6.12707 5.93393 6.67485C5.93393 6.82545 6.0233 6.93136 6.17058 6.93302C6.74484 6.94129 7.31745 6.93798 7.89171 6.93302C8.02245 6.93302 8.07375 6.85193 8.06879 6.71457C8.05886 6.43489 8.06548 6.15355 8.06548 5.87386V5.87221Z" fill="currentColor"/>
<path d="M18.0439 16.3709C18.0439 15.5484 18.034 14.7689 18.0522 13.9895C18.0555 13.8438 18.1581 13.6916 18.2475 13.5642C18.3021 13.4847 18.3782 13.5079 18.4792 13.584C18.7307 13.7727 18.6513 14.0176 18.6529 14.251C18.6579 15.0106 18.6562 15.7702 18.6562 16.5298C18.6562 16.8426 18.5354 16.9667 18.2309 16.9667C17.3621 16.9667 16.4949 16.9667 15.6261 16.9634C15.5152 16.9634 15.3712 16.9915 15.3679 16.8128C15.3646 16.6589 15.305 16.4669 15.5549 16.4355C15.7171 16.4156 15.8776 16.3775 16.0398 16.3759C16.6207 16.3676 17.2016 16.3709 17.7824 16.3709C17.8619 16.3709 17.943 16.3709 18.0456 16.3709H18.0439Z" fill="currentColor" stroke="currentColor" stroke-width="0.5"/>
<path d="M18.4432 2.19859C18.6219 2.12081 18.6616 2.1837 18.6616 2.30285C18.66 3.23292 18.6583 4.16465 18.6583 5.09472C18.6583 5.29497 18.4978 5.36944 18.3671 5.45384C18.2909 5.50349 18.0924 5.29993 18.0626 5.14768C18.0493 5.08148 18.051 5.01197 18.051 4.94247C18.0477 4.23085 18.041 3.51923 18.051 2.80761C18.0526 2.62887 17.9947 2.5875 17.8292 2.58916C17.2285 2.59577 16.6261 2.59577 16.0253 2.58419C15.8582 2.58088 15.691 2.53123 15.5239 2.50806C15.4047 2.49151 15.3733 2.42697 15.3716 2.31113C15.3683 2.01158 15.37 2.00331 15.6762 2.00331C16.5781 2.00331 17.4817 2.00331 18.3836 2C18.5044 2 18.5706 2.01489 18.4482 2.19859H18.4432Z" fill="currentColor" stroke="currentColor" stroke-width="0.5"/>
<path d="M3.73434 5.49521V5.25525C3.67477 5.28173 3.62677 5.30158 3.54899 5.33634C3.54899 5.22049 3.54899 5.12285 3.54899 5.02356C3.54568 4.11335 3.54237 3.20313 3.53906 2.29292C3.53906 2.03972 3.56885 2.00331 3.81709 2.00331C4.71903 2.00166 5.62262 2.00331 6.52456 2C6.67681 2 6.79431 2.04303 6.83568 2.20521C6.88037 2.38394 6.78934 2.48158 6.63047 2.52296C6.49973 2.55606 6.36403 2.58419 6.23163 2.58585C5.60938 2.59246 4.98713 2.59412 4.36487 2.58585C4.18449 2.58254 4.11498 2.62556 4.11829 2.8225C4.13153 3.43813 4.12656 4.05377 4.11994 4.6694C4.11994 4.82497 4.09015 4.98053 4.07029 5.13609C4.04878 5.31648 3.95279 5.43729 3.73434 5.49356V5.49521Z" fill="currentColor" stroke="currentColor" stroke-width="0.5"/>
<path d="M3.56541 13.6294C3.62002 13.6575 3.66305 13.6807 3.74083 13.722C3.71932 13.6492 3.70608 13.6045 3.69284 13.5615C3.85502 13.4771 4.00231 13.535 4.03541 13.7154C4.07513 13.9289 4.11153 14.1474 4.1165 14.3642C4.12808 14.9533 4.12808 15.5425 4.1165 16.13C4.11153 16.3319 4.17939 16.3848 4.37136 16.3799C4.85625 16.3666 5.3428 16.3617 5.8277 16.3749C6.10572 16.3832 6.3821 16.4345 6.66013 16.4692C6.77597 16.4841 6.8703 16.5453 6.8372 16.6695C6.81072 16.7688 6.74122 16.8648 6.67006 16.9409C6.63861 16.974 6.55256 16.9607 6.49132 16.9607C5.59435 16.9624 4.69903 16.9657 3.80206 16.964C3.55051 16.964 3.53727 16.9458 3.53562 16.6926C3.53231 15.7063 3.529 14.7216 3.52734 13.7353C3.52734 13.7038 3.5472 13.674 3.56375 13.6294H3.56541Z" fill="currentColor" stroke="currentColor" stroke-width="0.5"/>
<path d="M0.332329 8.95563C0.320745 8.52535 0.648421 8.17616 1.07539 8.16623C1.49409 8.1563 1.85155 8.49391 1.86148 8.9126C1.87307 9.36109 1.53381 9.72186 1.09194 9.73179C0.673245 9.74172 0.345569 9.40577 0.332329 8.95563Z" fill="currentColor"/>
<path d="M12.0273 10.3096H14.4799C14.4799 10.4585 14.4799 10.5992 14.4799 10.7415C14.4833 11.3638 14.4866 11.986 14.4932 12.6066C14.4932 12.7175 14.4783 12.7903 14.3409 12.7903C13.5764 12.787 12.8118 12.7903 12.0273 12.7903V10.3112V10.3096Z" fill="currentColor"/>
<path d="M15.5622 5.37925V6.37882C15.2892 6.36558 15.0194 6.36062 14.753 6.32918C14.7 6.32256 14.6239 6.21664 14.6206 6.15375C14.6073 5.94358 14.6123 5.73009 14.6338 5.51991C14.6388 5.46861 14.7331 5.38917 14.7894 5.38587C15.0393 5.37097 15.2908 5.37925 15.5606 5.37925H15.5622Z" fill="currentColor"/>
<path d="M7.49813 12.8428V13.8175H6.56641V12.8428H7.49813Z" fill="currentColor"/>
<path d="M6.55307 6.38229C6.55307 6.0695 6.5448 5.81795 6.55969 5.56641C6.563 5.51179 6.64575 5.42408 6.70036 5.41746C6.96019 5.38271 7.22167 5.37112 7.51128 5.34961C7.51128 5.68225 7.51459 5.98014 7.50631 6.27803C7.50631 6.31443 7.44839 6.37732 7.41695 6.37732C7.13395 6.3856 6.84931 6.38229 6.55307 6.38229Z" fill="currentColor"/>
</g>
<defs>
<clipPath id="clip0_7876_12332">
<rect width="18.91" height="18.91" fill="white"/>
</clipPath>
</defs>
</svg>
