<svg width="19" height="19" viewBox="0 0 19 19" fill="none" xmlns="http://www.w3.org/2000/svg">
<path d="M7.56467 15.7571H11.3467C14.4983 15.7571 15.759 14.4964 15.759 11.3447V7.56272C15.759 4.41105 14.4983 3.15039 11.3467 3.15039H7.56467C4.413 3.15039 3.15234 4.41105 3.15234 7.56272V11.3447C3.15234 14.4964 4.413 15.7571 7.56467 15.7571Z" stroke="currentColor" stroke-linecap="round" stroke-linejoin="round"/>
<path d="M8.27333 13.3948H10.6371C12.6069 13.3948 13.3948 12.6069 13.3948 10.6371V8.27333C13.3948 6.30353 12.6069 5.51562 10.6371 5.51562H8.27333C6.30353 5.51562 5.51562 6.30353 5.51562 8.27333V10.6371C5.51562 12.6069 6.30353 13.3948 8.27333 13.3948Z" stroke="currentColor" stroke-linecap="round" stroke-linejoin="round"/>
<path d="M6.3125 3.15201V1.57617" stroke="currentColor" stroke-linecap="round" stroke-linejoin="round"/>
<path d="M9.45312 3.15201V1.57617" stroke="currentColor" stroke-linecap="round" stroke-linejoin="round"/>
<path d="M12.6055 3.15201V1.57617" stroke="currentColor" stroke-linecap="round" stroke-linejoin="round"/>
<path d="M15.7578 6.30469H17.3336" stroke="currentColor" stroke-linecap="round" stroke-linejoin="round"/>
<path d="M15.7578 9.45508H17.3336" stroke="currentColor" stroke-linecap="round" stroke-linejoin="round"/>
<path d="M15.7578 12.6055H17.3336" stroke="currentColor" stroke-linecap="round" stroke-linejoin="round"/>
<path d="M12.6055 15.7598V17.3356" stroke="currentColor" stroke-linecap="round" stroke-linejoin="round"/>
<path d="M9.46094 15.7598V17.3356" stroke="currentColor" stroke-linecap="round" stroke-linejoin="round"/>
<path d="M6.3125 15.7598V17.3356" stroke="currentColor" stroke-linecap="round" stroke-linejoin="round"/>
<path d="M1.57812 6.30469H3.15397" stroke="currentColor" stroke-linecap="round" stroke-linejoin="round"/>
<path d="M1.57812 9.45508H3.15397" stroke="currentColor" stroke-linecap="round" stroke-linejoin="round"/>
<path d="M1.57812 12.6055H3.15397" stroke="currentColor" stroke-linecap="round" stroke-linejoin="round"/>
</svg>
