<svg width="19" height="19" viewBox="0 0 19 19" fill="none" xmlns="http://www.w3.org/2000/svg">
<g clip-path="url(#clip0_5029_10560)">
<path d="M9.74882 1.69377L16.8401 4.53024C17.1158 4.64056 17.3364 4.97147 17.3364 5.263V7.8789C17.3364 8.31224 16.9819 8.6668 16.5486 8.6668H2.36605C1.93269 8.6668 1.57812 8.31224 1.57812 7.8789V5.263C1.57812 4.97147 1.79875 4.64056 2.07452 4.53024L9.16577 1.69377C9.32335 1.63072 9.59124 1.63072 9.74882 1.69377Z" stroke="currentColor" stroke-miterlimit="10" stroke-linecap="round" stroke-linejoin="round"/>
<path d="M17.3364 17.3333H1.57812V14.9696C1.57812 14.5362 1.93269 14.1816 2.36605 14.1816H16.5486C16.9819 14.1816 17.3364 14.5362 17.3364 14.9696V17.3333Z" stroke="currentColor" stroke-miterlimit="10" stroke-linecap="round" stroke-linejoin="round"/>
<path d="M3.15234 14.1834V8.66797" stroke="currentColor" stroke-miterlimit="10" stroke-linecap="round" stroke-linejoin="round"/>
<path d="M6.30469 14.1834V8.66797" stroke="currentColor" stroke-miterlimit="10" stroke-linecap="round" stroke-linejoin="round"/>
<path d="M9.45312 14.1834V8.66797" stroke="currentColor" stroke-miterlimit="10" stroke-linecap="round" stroke-linejoin="round"/>
<path d="M12.6055 14.1834V8.66797" stroke="currentColor" stroke-miterlimit="10" stroke-linecap="round" stroke-linejoin="round"/>
<path d="M15.7578 14.1834V8.66797" stroke="currentColor" stroke-miterlimit="10" stroke-linecap="round" stroke-linejoin="round"/>
<path d="M0.789062 17.334H18.1232" stroke="currentColor" stroke-miterlimit="10" stroke-linecap="round" stroke-linejoin="round"/>
<path d="M9.45531 6.69578C10.108 6.69578 10.6372 6.16663 10.6372 5.51391C10.6372 4.86117 10.108 4.33203 9.45531 4.33203C8.80259 4.33203 8.27344 4.86117 8.27344 5.51391C8.27344 6.16663 8.80259 6.69578 9.45531 6.69578Z" stroke="currentColor" stroke-miterlimit="10" stroke-linecap="round" stroke-linejoin="round"/>
</g>
<defs>
<clipPath id="clip0_5029_10560">
<rect width="18.91" height="18.91" fill="white"/>
</clipPath>
</defs>
</svg>
