<svg width="16" height="18" viewBox="0 0 16 18" fill="none" xmlns="http://www.w3.org/2000/svg">
<path fill-rule="evenodd" clip-rule="evenodd" d="M10.0891 6.66537L8.46009 11.4131L8.46877 11.4143L6.80634 16.1989L8.25528 16.3996L9.72015 12.1151L11.5172 6.77601L11.5258 6.77629L12.9851 2.47349L11.5907 2.28033L10.082 6.66438L10.0891 6.66537ZM6.79088 6.20848L6.77728 6.20659L5.16728 10.957L5.15098 10.9547L3.53723 15.7461L2.08901 15.5454L3.55802 11.3076L3.56642 11.308L5.27077 6.31498L5.2807 6.31731L6.87426 1.62698L8.26856 1.82012L6.79088 6.20848ZM9.17896 1.27943C9.04133 1.07617 8.8686 0.960138 8.66076 0.931346L6.83084 0.677855C6.65914 0.65407 6.49801 0.687009 6.34744 0.776672C6.19687 0.866334 6.09613 0.995135 6.04524 1.16308L4.66904 5.21366C4.38362 5.14649 4.09369 5.0787 3.79923 5.01028C3.51382 4.94311 3.22965 4.86691 2.94674 4.78167C2.93117 4.76109 2.90531 4.7483 2.86916 4.74329C2.68843 4.71825 2.52215 4.75509 2.37033 4.85379C2.21851 4.95248 2.11715 5.0858 2.06625 5.25374L2.05123 5.36218C2.0262 5.54292 2.05851 5.70857 2.14817 5.85914C2.24812 6.00193 2.38721 6.09487 2.56544 6.13798C2.8083 6.21246 3.0481 6.28289 3.28484 6.34928C3.31507 6.35776 3.34526 6.36617 3.37539 6.37452C3.64149 6.44822 3.9121 6.52255 4.18722 6.5975L2.90843 10.3438C2.6155 10.3309 2.31743 10.3218 2.01422 10.3167C1.72129 10.3037 1.42711 10.2998 1.13168 10.3049C0.947189 10.307 0.786818 10.3677 0.650565 10.487C0.523348 10.6075 0.447222 10.7581 0.422185 10.9388C0.397149 11.1196 0.442391 11.2916 0.557912 11.455C0.674684 11.6093 0.836992 11.7009 1.04483 11.7297L1.12616 11.7409C1.22708 11.7417 1.32785 11.7436 1.42847 11.7464C1.53885 11.7496 1.64905 11.7539 1.75908 11.7595C1.97972 11.7625 2.19521 11.7693 2.40555 11.78L1.11696 15.4974L1.0963 15.6465C1.07127 15.8272 1.11651 15.9992 1.23203 16.1626C1.35784 16.3182 1.52467 16.4104 1.73251 16.4392L3.58954 16.6964C3.7522 16.7189 3.90819 16.6899 4.0575 16.6093C4.20808 16.5196 4.30818 16.3953 4.35783 16.2364L5.7893 11.9863L7.21257 12.1834L5.83408 16.1508L5.81343 16.2999C5.78839 16.4806 5.82912 16.6521 5.9356 16.8142C6.05237 16.9685 6.21468 17.0601 6.42252 17.0888L8.30666 17.3498C8.47836 17.3736 8.63435 17.3446 8.77463 17.2627C8.9252 17.173 9.02531 17.0488 9.07495 16.8899L10.4685 12.814C10.8081 12.8887 11.1471 12.9679 11.4855 13.0516C11.8239 13.1353 12.1571 13.223 12.4852 13.3145L12.5937 13.3295C12.7654 13.3533 12.922 13.3197 13.0635 13.2288C13.2153 13.1301 13.3173 12.9922 13.3695 12.8153C13.3945 12.6345 13.3686 12.456 13.2917 12.2795C13.2148 12.1031 13.0744 11.9869 12.8703 11.931C12.5602 11.842 12.2406 11.7563 11.9112 11.6738C11.8895 11.6677 11.8677 11.6616 11.8459 11.6555C11.5479 11.5725 11.2448 11.4968 10.9367 11.4283L12.1809 7.73246C12.5293 7.74388 12.8822 7.75593 13.2396 7.7686C13.5983 7.77224 13.9531 7.77073 14.304 7.76408C14.4873 7.77105 14.6419 7.71878 14.7678 7.60729C14.9041 7.48802 14.9847 7.33801 15.0098 7.15728C15.0348 6.97655 14.9941 6.80512 14.8876 6.64301C14.7824 6.47186 14.6258 6.37189 14.418 6.3431L14.3638 6.33559C14.3457 6.33309 14.3264 6.33962 14.3058 6.35519C14.0924 6.34781 13.8727 6.34254 13.6469 6.33937C13.5914 6.33859 13.5356 6.33794 13.4793 6.33741C13.2032 6.33601 12.9323 6.3307 12.6665 6.32151L13.9509 2.53452C13.9546 2.50741 13.9623 2.48544 13.9738 2.46862C13.9854 2.4518 13.993 2.42983 13.9968 2.40272C14.0206 2.23103 13.987 2.07441 13.8961 1.93288C13.7675 1.73086 13.5948 1.61483 13.3779 1.58479L11.548 1.3313C11.3672 1.30626 11.2061 1.3392 11.0646 1.43012C10.923 1.52103 10.8223 1.64983 10.7624 1.81652L9.30565 6.04936L7.89594 5.85408L9.23376 1.88107C9.25684 1.84743 9.27214 1.8035 9.27965 1.74928C9.30343 1.57758 9.26987 1.42097 9.17896 1.27943ZM7.39805 10.7447C7.48842 10.7572 7.58205 10.7794 7.67895 10.8113L8.83739 7.43508C8.7651 7.42507 8.68766 7.41894 8.60508 7.41671C8.53154 7.41574 8.45862 7.41024 8.38633 7.40022C8.21463 7.37644 8.0526 7.34939 7.90023 7.31907C7.8969 7.31841 7.89357 7.31775 7.89023 7.31709C7.74077 7.28758 7.58207 7.26119 7.41412 7.23792L6.26924 10.616C6.42286 10.6373 6.56807 10.6528 6.70487 10.6625C6.85071 10.6735 6.99141 10.6884 7.12696 10.7072L7.39805 10.7447Z" fill="currentColor"/>
</svg>
