<svg width="19" height="19" viewBox="0 0 19 19" fill="none" xmlns="http://www.w3.org/2000/svg">
<g clip-path="url(#clip0_7862_12245)">
<path d="M15.3954 5.15331L12.9765 2.73441C12.6106 2.36748 12.1758 2.07632 11.6972 1.87758C11.2186 1.67883 10.7055 1.57641 10.1873 1.57617H6.30286C3.93911 1.57617 2.36328 3.15201 2.36328 5.51576V13.3949C2.36328 15.7587 3.93911 17.3345 6.30286 17.3345H12.6062C14.9699 17.3345 16.5458 15.7587 16.5458 13.3949V7.93466C16.5458 6.88673 16.1282 5.88608 15.3954 5.15331Z" stroke="currentColor" stroke-width="1.5" stroke-linecap="round" stroke-linejoin="round"/>
<path d="M9.45521 7.48535V14.5766M5.90958 11.031H13.0008M7.87937 14.5766H11.031C12.3311 14.5766 13.3948 13.5129 13.3948 12.2129V9.8491C13.3948 8.54904 12.3311 7.48535 11.031 7.48535H7.87937C6.57931 7.48535 5.51562 8.54904 5.51562 9.8491V12.2129C5.51562 13.5129 6.57931 14.5766 7.87937 14.5766Z" stroke="currentColor" stroke-width="1.5" stroke-linecap="round" stroke-linejoin="round"/>
</g>
<defs>
<clipPath id="clip0_7862_12245">
<rect width="18.91" height="18.91" fill="white"/>
</clipPath>
</defs>
</svg>
