<svg width="98" height="23" viewBox="0 0 98 23" fill="none" xmlns="http://www.w3.org/2000/svg">
<path d="M17.5 0H14C12 4 13 4 9 5.5V8.5H11.5C11.5 16.5 11 17.7143 13.5 19.5C14.7866 20.419 21.3334 20.1667 23.5 19.5V15.5C20.5 17 17.1667 16.6667 17 15.5V9H23.5V4.5H17.5V0Z" fill="white"/>
<path d="M86 13L82 17.5L87.5 23L97 13H86Z" fill="white"/>
<path d="M75.5 2L65.5 12H76L81 7.5L75.5 2Z" fill="#61C38E"/>
<path d="M86 2H77L81.5 6.5L86 2Z" fill="#61C38E"/>
<path d="M87.5 2L82 7.5L86.5 12H97.5L87.5 2Z" fill="white"/>
<path d="M86.5 23L81.5 18L76.5 23H86.5Z" fill="white"/>
<path d="M76.5 13H66L75.5 22.5L81 17.5L76.5 13Z" fill="white"/>
<path d="M5.5 0C4.7 2.8 1.5 4.83333 0 5.5V20H5.5V0Z" fill="white"/>
<path d="M0 0V4C0.8 4 3.5 1.33333 4.5 0H0Z" fill="#61C38E"/>
<path d="M53 4H47L53 12L47 20H53L56 16L59.5 20H65.5L59.5 12L65.5 4H59L56 8L53 4Z" fill="white"/>
<path d="M44.5001 13.4999L32.0001 13.4998C33.2 19.4998 40.5001 16.9998 44.0002 14.9998V17.9998C42.5001 20.5 37.0001 21 33.5001 20.4999C28.2562 19.7508 26.6601 15.5409 26.6096 12.0744C26.5797 10.0132 27.5076 8.04219 29.0018 6.622C35.3751 0.564411 43.5982 5.39224 44.5001 8.99991L44.5001 13.4999Z" fill="white"/>
<path d="M41.5 10.5001H32H31.5L32 10C36 5.0002 40.5 7.9999 41.5 10.5001Z" fill="black"/>
</svg>
