<?xml version="1.0" standalone="no"?>
<!DOCTYPE svg PUBLIC "-//W3C//DTD SVG 20010904//EN"
 "http://www.w3.org/TR/2001/REC-SVG-20010904/DTD/svg10.dtd">
<svg version="1.0" xmlns="http://www.w3.org/2000/svg"
 width="142.000000pt" height="60.000000pt" viewBox="0 0 142.000000 60.000000"
 preserveAspectRatio="xMidYMid meet">

<g transform="translate(0.000000,60.000000) scale(0.100000,-0.100000)"
fill="#000000" stroke="none">
<path d="M1037 566 c-21 -8 -55 -26 -77 -41 -133 -92 -149 -305 -30 -423 133
-133 360 -97 447 72 39 74 39 180 1 252 -65 124 -214 185 -341 140z m23 -171
c31 -16 41 -45 16 -45 -7 0 -19 7 -26 15 -17 21 -73 19 -101 -4 -33 -27 -33
-95 0 -122 29 -23 78 -25 103 -2 27 25 22 43 -12 43 -20 0 -30 5 -30 15 0 11
12 15 45 15 43 0 45 -1 45 -29 0 -43 -9 -60 -41 -76 -46 -24 -94 -19 -131 14
-29 26 -33 35 -33 81 0 46 4 55 33 81 37 33 85 38 132 14z m269 -14 c27 -25
31 -36 31 -79 0 -43 -5 -55 -31 -81 -43 -43 -104 -44 -151 -2 -29 26 -33 35
-33 81 0 46 4 55 33 81 46 41 107 41 151 0z"/>
<path d="M1203 365 c-42 -30 -34 -121 12 -139 84 -32 150 57 94 128 -24 30
-71 35 -106 11z"/>
<path d="M70 310 c-27 -55 -50 -104 -50 -110 0 -21 18 -9 30 20 12 29 15 30
76 30 60 0 64 -1 79 -30 13 -25 35 -41 35 -25 0 13 -106 215 -112 215 -4 0
-30 -45 -58 -100z m85 13 c21 -51 20 -53 -30 -53 -25 0 -45 2 -45 5 0 16 45
93 52 89 5 -3 15 -21 23 -41z"/>
<path d="M300 300 c0 -67 4 -110 10 -110 6 0 10 25 10 55 l0 55 45 0 c25 0 45
5 45 10 0 6 -20 10 -45 10 -45 0 -45 0 -45 35 l0 35 75 0 c43 0 75 4 75 10 0
6 -35 10 -85 10 l-85 0 0 -110z"/>
<path d="M520 299 c0 -84 3 -110 13 -107 6 3 13 25 15 51 l3 47 42 0 c40 0 43
-2 70 -50 16 -28 32 -50 38 -50 14 0 11 11 -16 54 l-24 39 25 19 c31 25 32 71
2 92 -15 11 -46 16 -95 16 l-73 0 0 -111z m164 69 c21 -34 -4 -53 -73 -56
l-61 -3 0 41 0 41 61 -3 c46 -2 65 -8 73 -20z"/>
<path d="M770 300 c0 -67 4 -110 10 -110 6 0 10 43 10 110 0 67 -4 110 -10
110 -6 0 -10 -43 -10 -110z"/>
</g>
</svg>
